<svg xmlns="http://www.w3.org/2000/svg" viewBox="0 0 760 560"><defs><linearGradient id="g" x1="0" y1="0" x2="1" y2="1"><stop stop-color="#e50914"/><stop offset="1" stop-color="#ff8f2b"/></linearGradient><filter id="s" x="-20%" y="-20%" width="140%" height="140%"><feDropShadow dx="0" dy="18" stdDeviation="20" flood-color="#172033" flood-opacity=".18"/></filter></defs><rect width="760" height="560" rx="44" fill="#f7f9fd"/><circle cx="595" cy="97" r="76" fill="#ffe1e4"/><circle cx="138" cy="454" r="86" fill="#e9f2ff"/><path d="M92 372c82-48 143-30 208-3 68 28 151 66 257 13 41-21 75-54 108-99" fill="none" stroke="#dfe7f1" stroke-width="26" stroke-linecap="round"/><path d="M93 372c72-42 130-32 184-12" fill="none" stroke="url(#g)" stroke-width="26" stroke-linecap="round"/><g filter="url(#s)"><rect x="390" y="206" width="190" height="118" rx="28" fill="#fff"/><rect x="410" y="228" width="64" height="64" rx="18" fill="#fff2f3"/><path d="M429 278h29l8-32h-44z" fill="#e50914"/><path d="M426 245h43" stroke="#172033" stroke-width="6" stroke-linecap="round"/><rect x="492" y="232" width="60" height="12" rx="6" fill="#172033" opacity=".2"/><rect x="492" y="256" width="72" height="12" rx="6" fill="#172033" opacity=".12"/><rect x="492" y="280" width="45" height="12" rx="6" fill="#1aaa78"/></g><g filter="url(#s)"><circle cx="293" cy="360" r="70" fill="#172033"/><circle cx="293" cy="360" r="34" fill="#fff"/><circle cx="532" cy="360" r="70" fill="#172033"/><circle cx="532" cy="360" r="34" fill="#fff"/><path d="M304 359h130l51-102h-91l-45 57" fill="none" stroke="#e50914" stroke-width="24" stroke-linecap="round" stroke-linejoin="round"/><path d="M435 257l-38-54" stroke="#172033" stroke-width="21" stroke-linecap="round"/><path d="M515 258l44 102" stroke="#172033" stroke-width="21" stroke-linecap="round"/><circle cx="390" cy="178" r="36" fill="#ffca3a"/><path d="M361 217c18-17 55-17 73 0l-20 66h-75z" fill="#1346a0"/><path d="M432 220c28 16 50 29 77 31" stroke="#1346a0" stroke-width="21" stroke-linecap="round"/><path d="M363 225c-20 30-30 56-35 88" stroke="#1346a0" stroke-width="21" stroke-linecap="round"/><rect x="483" y="146" width="121" height="88" rx="20" fill="#e50914"/><rect x="504" y="168" width="77" height="12" rx="6" fill="#fff" opacity=".75"/><rect x="504" y="193" width="48" height="12" rx="6" fill="#fff" opacity=".55"/></g><g><rect x="93" y="103" width="172" height="102" rx="26" fill="#fff" filter="url(#s)"/><text x="118" y="151" font-family="Segoe UI,Arial" font-size="44" font-weight="900" fill="#e50914">Extra</text><text x="119" y="179" font-family="Segoe UI,Arial" font-size="19" font-weight="700" fill="#6b7688">mercado</text></g></svg>