<svg xmlns="http://www.w3.org/2000/svg" viewBox="0 0 520 360"><defs><linearGradient id="r" x1="0" x2="1"><stop stop-color="#e50914"/><stop offset="1" stop-color="#ffca3a"/></linearGradient></defs><rect width="520" height="360" rx="28" fill="#f6f8fb"/><path d="M40 85h440M40 175h440M40 265h440M126 32v296M258 32v296M392 32v296" stroke="#dde6f1" stroke-width="10" stroke-linecap="round"/><path d="M70 262C120 188 174 217 221 161c34-41 62-78 123-70 43 6 72 34 107 77" fill="none" stroke="url(#r)" stroke-width="18" stroke-linecap="round" stroke-dasharray="2 30"/><circle cx="75" cy="262" r="28" fill="#e50914"/><text x="58" y="269" font-family="Arial" font-size="20" font-weight="900" fill="#fff">E</text><circle cx="451" cy="168" r="30" fill="#1aaa78"/><path d="M437 169l13 13 23-29" stroke="#fff" stroke-width="8" fill="none" stroke-linecap="round" stroke-linejoin="round"/><rect x="166" y="238" width="138" height="54" rx="18" fill="#fff"/><text x="185" y="261" font-family="Segoe UI,Arial" font-size="14" font-weight="900" fill="#172033">Rota prevista</text><text x="185" y="280" font-family="Segoe UI,Arial" font-size="13" font-weight="700" fill="#6b7688">43 minutos</text></svg>